<?xml version="1.0" encoding="UTF-8" standalone="no"?>
<!-- Created with Inkscape (http://www.inkscape.org/) -->

<svg
   width="150mm"
   height="150mm"
   viewBox="0 0 150 150"
   version="1.1"
   id="svg5"
   xml:space="preserve"
   inkscape:version="1.2.2 (732a01da63, 2022-12-09)"
   sodipodi:docname="lagalga.svg"
   inkscape:export-filename="lagalga.jpg"
   inkscape:export-xdpi="84.666664"
   inkscape:export-ydpi="84.666664"
   xmlns:inkscape="http://www.inkscape.org/namespaces/inkscape"
   xmlns:sodipodi="http://sodipodi.sourceforge.net/DTD/sodipodi-0.dtd"
   xmlns:xlink="http://www.w3.org/1999/xlink"
   xmlns="http://www.w3.org/2000/svg"
   xmlns:svg="http://www.w3.org/2000/svg"><sodipodi:namedview
     id="namedview7"
     pagecolor="#ffffff"
     bordercolor="#000000"
     borderopacity="0.25"
     inkscape:showpageshadow="2"
     inkscape:pageopacity="0.0"
     inkscape:pagecheckerboard="0"
     inkscape:deskcolor="#d1d1d1"
     inkscape:document-units="mm"
     showgrid="false"
     inkscape:zoom="1.4358056"
     inkscape:cx="283.8128"
     inkscape:cy="283.46457"
     inkscape:window-width="1920"
     inkscape:window-height="1017"
     inkscape:window-x="-8"
     inkscape:window-y="-8"
     inkscape:window-maximized="1"
     inkscape:current-layer="layer1" /><defs
     id="defs2" /><g
     inkscape:label="Capa 1"
     inkscape:groupmode="layer"
     id="layer1"
     transform="translate(-45.527828,-77.666484)"><path
       style="fill:#000000;stroke-width:0.180469"
       d="m 114.17661,177.4745 c -7.36385,-0.58991 -12.43268,-1.7572 -19.2607,-4.43554 -4.331744,-1.69918 -10.135571,-4.69405 -14.618435,-7.54337 l -2.052847,-1.30479 0.505305,-0.41938 c 0.277919,-0.23067 0.65469,-0.4317 0.837271,-0.44676 0.50513,-0.0424 0.678194,-0.23351 1.221359,-1.35449 1.18752,-2.45076 3.099204,-5.71681 5.12841,-8.76175 1.198937,-1.79905 2.552391,-3.95009 3.007681,-4.78005 1.085327,-1.97853 2.883803,-4.171 5.892216,-7.18303 1.346805,-1.3484 3.235309,-3.37567 4.196688,-4.50502 0.96138,-1.12934 2.368082,-2.59983 3.126022,-3.26775 0.75792,-0.66791 1.68494,-1.61993 2.06004,-2.11557 l 0.68199,-0.90119 -0.11389,-1.54952 c -0.16687,-2.26817 -0.0245,-2.75729 0.99128,-3.4118 0.53884,-0.34721 0.90769,-0.74242 1.02518,-1.09847 0.27442,-0.83161 1.10731,-1.06549 4.52945,-1.27177 l 2.89078,-0.1742 0.37131,-0.98293 c 0.36537,-0.9672 0.3836,-0.98357 1.1401,-1.02405 0.56636,-0.0302 0.95628,0.0867 1.48065,0.44432 0.82964,0.56581 2.35228,2.42466 2.54354,3.10516 0.36407,1.29532 0.90509,1.5846 4.79569,2.56424 2.67073,0.67247 10.64682,4.03856 12.31757,5.19829 0.57057,0.39606 1.43433,0.88562 1.91943,1.08789 0.66866,0.27882 1.33347,0.84995 2.7482,2.36092 2.64797,2.82814 5.89254,5.87137 7.29004,6.8377 0.65723,0.45445 2.22584,1.31335 3.4858,1.90865 1.25995,0.59528 3.01213,1.47525 3.89372,1.95547 3.46551,1.88774 4.46853,2.43026 5.40969,2.92606 0.53813,0.28349 1.82747,1.06327 2.86523,1.73284 1.03775,0.66958 2.6002,1.6393 3.47212,2.15494 1.76774,1.04539 2.64781,1.95807 2.85973,2.96568 0.15813,0.75154 -0.0623,1.41544 -0.93886,2.82969 -0.63004,1.01643 -2.41482,2.21025 -4.47512,2.99338 -1.25377,0.47656 -2.15868,1.11568 -2.13897,1.51072 0.007,0.11663 -0.40666,0.50897 -0.91663,0.87157 -0.75559,0.53725 -1.28418,0.7373 -2.85545,1.0807 -3.1228,0.68248 -4.62623,0.71975 -7.24483,0.17951 -4.60473,-0.94999 -10.26522,-1.58359 -12.99607,-1.45473 l -2.25416,0.10637 -0.6833,-0.67376 c -0.63371,-0.62488 -0.79577,-0.6852 -2.23317,-0.83136 -0.85244,-0.0866 -2.60387,-0.0949 -3.89208,-0.0183 -2.65939,0.15816 -3.38006,0.3926 -6.53806,2.12699 -1.78683,0.98134 -2.81626,1.76178 -3.47501,2.63455 -0.61544,0.81538 -1.85019,3.56265 -2.44822,5.44722 -0.30727,0.96832 -0.92632,2.37687 -1.37568,3.13013 -0.85121,1.42694 -0.90203,1.45865 -2.17516,1.35667 z"
       id="path525"
       inkscape:label="cabesa" /><path
       style="fill:none;stroke:none;stroke-width:0.196546"
       d="M 97.404904,99.005733 A 59.233715,59.233715 0 0 1 176.18949,127.4707 59.233715,59.233715 0 0 1 147.72454,206.25529 59.233715,59.233715 0 0 1 68.939934,177.79033 59.233715,59.233715 0 0 1 97.404904,99.005733 Z"
       id="path579"
       inkscape:label="trayectoGalga" /><path
       style="fill:none;stroke:none;stroke-width:0.196546"
       d="M 102.51169,208.21867 A 59.233715,59.233715 0 0 0 178.36504,172.67246 59.233715,59.233715 0 0 0 142.81883,96.819099 59.233715,59.233715 0 0 0 66.965472,132.36532 59.233715,59.233715 0 0 0 102.51169,208.21867 Z"
       id="path579-4"
       inkscape:label="trayectoMaker" /><path
       style="fill:none;fill-opacity:1;stroke:#000000;stroke-width:4.597;stroke-linecap:round;stroke-dasharray:110.328, 459.7;stroke-dashoffset:0"
       d="M 153.0745,204.0092 A 59.233715,59.233715 0 0 0 172.83938,122.60518 59.233715,59.233715 0 0 0 91.435353,102.8403 59.233715,59.233715 0 0 0 71.670477,184.24433 59.233715,59.233715 0 0 0 153.0745,204.0092 Z"
       id="path579-4-0"
       inkscape:label="tronchoDER" /><path
       style="fill:none;fill-opacity:1;stroke:#000000;stroke-width:4.597;stroke-linecap:round;stroke-linejoin:bevel;stroke-dasharray:110.328, 459.7;stroke-dashoffset:0"
       d="M 92.357849,202.81224 A 59.233715,59.233715 0 0 1 72.592978,121.40822 59.233715,59.233715 0 0 1 153.997,101.64334 a 59.233715,59.233715 0 0 1 19.76488,81.40403 59.233715,59.233715 0 0 1 -81.404031,19.76487 z"
       id="tronchoIZQ" /><text
       xml:space="preserve"
       style="font-style:normal;font-variant:normal;font-weight:bold;font-stretch:condensed;font-size:22.5778px;font-family:Amatic;-inkscape-font-specification:'Amatic Bold Condensed';word-spacing:4.32858px;fill:none;stroke:#000000;stroke-width:0.264583;stroke-opacity:1"
       id="text1189"
       transform="translate(0.52916667,11.561972)"><textPath
         xlink:href="#path579"
         id="textPath1242"
         style="font-style:normal;font-variant:normal;font-weight:bold;font-stretch:condensed;font-size:22.5778px;font-family:Amatic;-inkscape-font-specification:'Amatic Bold Condensed';fill:#000000;fill-opacity:1;stroke:none;stroke-width:0.264583">La Galga</textPath></text><text
       xml:space="preserve"
       style="font-style:normal;font-variant:normal;font-weight:normal;font-stretch:normal;font-size:22.5778px;font-family:Amatic;-inkscape-font-specification:Amatic;letter-spacing:2.41035px;fill:none;stroke:#000000;stroke-width:0.264583;stroke-opacity:1"
       id="text1288"
       transform="translate(0.80543804,3.6244711)"><textPath
         xlink:href="#path579-4"
         id="textPath1315"
         style="font-style:normal;font-variant:normal;font-weight:normal;font-stretch:normal;font-size:22.5778px;font-family:Amatic;-inkscape-font-specification:Amatic;fill:#000000;fill-opacity:1;stroke:none">Maker</textPath></text></g></svg>
